<svg xmlns="http://www.w3.org/2000/svg" opacity=".2" width="800" height="800"><g stroke-width="2.3" stroke="#1f2d404d" fill="none"><path d="M0 0h44v44H0zM44 0h45v44H44zM89 0h44v44H89zM133 0h45v44h-45zM178 0h44v44h-44zM222 0h45v44h-45zM267 0h44v44h-44zM311 0h45v44h-45zM356 0h44v44h-44zM400 0h44v44h-44zM444 0h45v44h-45zM489 0h44v44h-44zM533 0h45v44h-45zM578 0h44v44h-44zM622 0h45v44h-45zM667 0h44v44h-44zM711 0h45v44h-45zM756 0h44v44h-44zM800 0h44v44h-44zM0 44h44v45H0zM44 44h45v45H44zM89 44h44v45H89zM133 44h45v45h-45zM178 44h44v45h-44zM222 44h45v45h-45zM267 44h44v45h-44zM311 44h45v45h-45zM356 44h44v45h-44zM400 44h44v45h-44zM444 44h45v45h-45zM489 44h44v45h-44zM533 44h45v45h-45zM578 44h44v45h-44zM622 44h45v45h-45zM667 44h44v45h-44zM711 44h45v45h-45zM756 44h44v45h-44zM800 44h44v45h-44zM0 89h44v44H0zM44 89h45v44H44zM89 89h44v44H89zM133 89h45v44h-45zM178 89h44v44h-44zM222 89h45v44h-45zM267 89h44v44h-44zM311 89h45v44h-45zM356 89h44v44h-44zM400 89h44v44h-44zM444 89h45v44h-45zM489 89h44v44h-44zM533 89h45v44h-45zM578 89h44v44h-44zM622 89h45v44h-45zM667 89h44v44h-44zM711 89h45v44h-45zM756 89h44v44h-44zM800 89h44v44h-44zM0 133h44v45H0zM44 133h45v45H44zM89 133h44v45H89zM133 133h45v45h-45zM178 133h44v45h-44zM222 133h45v45h-45zM267 133h44v45h-44zM311 133h45v45h-45zM356 133h44v45h-44zM400 133h44v45h-44zM444 133h45v45h-45zM489 133h44v45h-44zM533 133h45v45h-45zM578 133h44v45h-44zM622 133h45v45h-45zM667 133h44v45h-44zM711 133h45v45h-45zM756 133h44v45h-44zM800 133h44v45h-44zM0 178h44v44H0zM44 178h45v44H44zM89 178h44v44H89zM133 178h45v44h-45zM178 178h44v44h-44zM222 178h45v44h-45zM267 178h44v44h-44zM311 178h45v44h-45zM356 178h44v44h-44zM400 178h44v44h-44zM444 178h45v44h-45zM489 178h44v44h-44zM533 178h45v44h-45zM578 178h44v44h-44zM622 178h45v44h-45zM667 178h44v44h-44zM711 178h45v44h-45zM756 178h44v44h-44zM800 178h44v44h-44zM0 222h44v45H0zM44 222h45v45H44zM89 222h44v45H89zM133 222h45v45h-45zM178 222h44v45h-44zM222 222h45v45h-45zM267 222h44v45h-44zM311 222h45v45h-45zM356 222h44v45h-44zM400 222h44v45h-44zM444 222h45v45h-45zM489 222h44v45h-44zM533 222h45v45h-45zM578 222h44v45h-44zM622 222h45v45h-45zM667 222h44v45h-44zM711 222h45v45h-45zM756 222h44v45h-44zM800 222h44v45h-44zM0 267h44v44H0zM44 267h45v44H44zM89 267h44v44H89zM133 267h45v44h-45zM178 267h44v44h-44zM222 267h45v44h-45zM267 267h44v44h-44zM311 267h45v44h-45zM356 267h44v44h-44zM400 267h44v44h-44zM444 267h45v44h-45zM489 267h44v44h-44zM533 267h45v44h-45zM578 267h44v44h-44zM622 267h45v44h-45zM667 267h44v44h-44zM711 267h45v44h-45zM756 267h44v44h-44zM800 267h44v44h-44zM0 311h44v45H0zM44 311h45v45H44zM89 311h44v45H89zM133 311h45v45h-45zM178 311h44v45h-44zM222 311h45v45h-45zM267 311h44v45h-44zM311 311h45v45h-45zM356 311h44v45h-44zM400 311h44v45h-44zM444 311h45v45h-45zM489 311h44v45h-44zM533 311h45v45h-45zM578 311h44v45h-44zM622 311h45v45h-45zM667 311h44v45h-44zM711 311h45v45h-45zM756 311h44v45h-44zM800 311h44v45h-44zM0 356h44v44H0zM44 356h45v44H44zM89 356h44v44H89zM133 356h45v44h-45zM178 356h44v44h-44zM222 356h45v44h-45zM267 356h44v44h-44zM311 356h45v44h-45zM356 356h44v44h-44zM400 356h44v44h-44zM444 356h45v44h-45zM489 356h44v44h-44zM533 356h45v44h-45zM578 356h44v44h-44zM622 356h45v44h-45zM667 356h44v44h-44zM711 356h45v44h-45zM756 356h44v44h-44zM800 356h44v44h-44zM0 400h44v44H0zM44 400h45v44H44zM89 400h44v44H89zM133 400h45v44h-45zM178 400h44v44h-44zM222 400h45v44h-45zM267 400h44v44h-44zM311 400h45v44h-45zM356 400h44v44h-44zM400 400h44v44h-44zM444 400h45v44h-45zM489 400h44v44h-44zM533 400h45v44h-45zM578 400h44v44h-44zM622 400h45v44h-45zM667 400h44v44h-44zM711 400h45v44h-45zM756 400h44v44h-44zM800 400h44v44h-44zM0 444h44v45H0zM44 444h45v45H44zM89 444h44v45H89zM133 444h45v45h-45zM178 444h44v45h-44zM222 444h45v45h-45zM267 444h44v45h-44zM311 444h45v45h-45zM356 444h44v45h-44zM400 444h44v45h-44zM444 444h45v45h-45zM489 444h44v45h-44zM533 444h45v45h-45zM578 444h44v45h-44zM622 444h45v45h-45zM667 444h44v45h-44zM711 444h45v45h-45zM756 444h44v45h-44zM800 444h44v45h-44zM0 489h44v44H0zM44 489h45v44H44zM89 489h44v44H89zM133 489h45v44h-45zM178 489h44v44h-44zM222 489h45v44h-45zM267 489h44v44h-44zM311 489h45v44h-45zM356 489h44v44h-44zM400 489h44v44h-44zM444 489h45v44h-45zM489 489h44v44h-44zM533 489h45v44h-45zM578 489h44v44h-44zM622 489h45v44h-45zM667 489h44v44h-44zM711 489h45v44h-45zM756 489h44v44h-44zM800 489h44v44h-44zM0 533h44v45H0zM44 533h45v45H44zM89 533h44v45H89zM133 533h45v45h-45zM178 533h44v45h-44zM222 533h45v45h-45zM267 533h44v45h-44zM311 533h45v45h-45zM356 533h44v45h-44zM400 533h44v45h-44zM444 533h45v45h-45zM489 533h44v45h-44zM533 533h45v45h-45zM578 533h44v45h-44zM622 533h45v45h-45zM667 533h44v45h-44zM711 533h45v45h-45zM756 533h44v45h-44zM800 533h44v45h-44zM0 578h44v44H0zM44 578h45v44H44zM89 578h44v44H89zM133 578h45v44h-45zM178 578h44v44h-44zM222 578h45v44h-45zM267 578h44v44h-44zM311 578h45v44h-45zM356 578h44v44h-44zM400 578h44v44h-44zM444 578h45v44h-45zM489 578h44v44h-44zM533 578h45v44h-45zM578 578h44v44h-44zM622 578h45v44h-45zM667 578h44v44h-44zM711 578h45v44h-45zM756 578h44v44h-44zM800 578h44v44h-44zM0 622h44v45H0zM44 622h45v45H44zM89 622h44v45H89zM133 622h45v45h-45zM178 622h44v45h-44zM222 622h45v45h-45zM267 622h44v45h-44zM311 622h45v45h-45zM356 622h44v45h-44zM400 622h44v45h-44zM444 622h45v45h-45zM489 622h44v45h-44zM533 622h45v45h-45zM578 622h44v45h-44zM622 622h45v45h-45zM667 622h44v45h-44zM711 622h45v45h-45zM756 622h44v45h-44zM800 622h44v45h-44zM0 667h44v44H0zM44 667h45v44H44zM89 667h44v44H89zM133 667h45v44h-45zM178 667h44v44h-44zM222 667h45v44h-45zM267 667h44v44h-44zM311 667h45v44h-45zM356 667h44v44h-44zM400 667h44v44h-44zM444 667h45v44h-45zM489 667h44v44h-44zM533 667h45v44h-45zM578 667h44v44h-44zM622 667h45v44h-45zM667 667h44v44h-44zM711 667h45v44h-45zM756 667h44v44h-44zM800 667h44v44h-44zM0 711h44v45H0zM44 711h45v45H44zM89 711h44v45H89zM133 711h45v45h-45zM178 711h44v45h-44zM222 711h45v45h-45zM267 711h44v45h-44zM311 711h45v45h-45zM356 711h44v45h-44zM400 711h44v45h-44zM444 711h45v45h-45zM489 711h44v45h-44zM533 711h45v45h-45zM578 711h44v45h-44zM622 711h45v45h-45zM667 711h44v45h-44zM711 711h45v45h-45zM756 711h44v45h-44zM800 711h44v45h-44zM0 756h44v44H0zM44 756h45v44H44zM89 756h44v44H89zM133 756h45v44h-45zM178 756h44v44h-44zM222 756h45v44h-45zM267 756h44v44h-44zM311 756h45v44h-45zM356 756h44v44h-44zM400 756h44v44h-44zM444 756h45v44h-45zM489 756h44v44h-44zM533 756h45v44h-45zM578 756h44v44h-44zM622 756h45v44h-45zM667 756h44v44h-44zM711 756h45v44h-45zM756 756h44v44h-44zM800 756h44v44h-44zM0 800h44v44H0zM44 800h45v44H44zM89 800h44v44H89zM133 800h45v44h-45zM178 800h44v44h-44zM222 800h45v44h-45zM267 800h44v44h-44zM311 800h45v44h-45zM356 800h44v44h-44zM400 800h44v44h-44zM444 800h45v44h-45zM489 800h44v44h-44zM533 800h45v44h-45zM578 800h44v44h-44zM622 800h45v44h-45zM667 800h44v44h-44zM711 800h45v44h-45zM756 800h44v44h-44zM800 800h44v44h-44z"/></g></svg>